/* XPM */
static char * sand_xpm[] = {
"16 16 6 1",
" 	c #E7E4BB",
".	c #DACFA3",
"+	c #E3DBB0",
"@	c #D5C496",
"#	c #D1BA8A",
"$	c #EDEBCB",
" ..+.@+.+.@+.+@+",
"@..@.@@+#@ .$#. ",
"+.#@@ .....@.@@.",
".++@.@+@++@+.@..",
"@.$.@+.+.+..@..+",
".@..+++.@.+@..@.",
"@ .@@$@.@@#..@.@",
".@..@..@.@@@. .@",
"@.+..+@#@+@.+.@.",
" .@...@@.#.@..+@",
".#.+.@.+..+.#@.+",
"@@..+.@.++@@@.@.",
"@.@+@+.@ $+.@@.+",
"+.+.+#.+.+.+..@.",
".+.+$++.+.+.#+..",
"+.+.++.+.@..+.+."};
